<svg xmlns="http://www.w3.org/2000/svg" viewBox="0 0 32 32" width="32" height="32">
  <rect width="32" height="32" fill="#0a1520"/>
  <rect x="4" y="4" width="8" height="24" fill="#2a3a4a"/>
  <rect x="14" y="4" width="8" height="24" fill="#2a3a4a"/>
  <rect x="24" y="4" width="4" height="24" fill="#2a3a4a"/>
  <rect x="5" y="6" width="6" height="2" fill="#1a2a3a"/>
  <rect x="5" y="10" width="6" height="2" fill="#1a2a3a"/>
  <rect x="5" y="14" width="6" height="2" fill="#1a2a3a"/>
  <rect x="5" y="18" width="6" height="2" fill="#1a2a3a"/>
  <rect x="5" y="22" width="6" height="2" fill="#1a2a3a"/>
  <circle cx="10" cy="7" r="1" fill="#4f4"/>
  <circle cx="10" cy="11" r="1" fill="#4f4"/>
  <circle cx="10" cy="15" r="1" fill="#44f"/>
  <circle cx="10" cy="19" r="1" fill="#4f4"/>
  <circle cx="10" cy="23" r="1" fill="#f44"/>
  <rect x="15" y="6" width="6" height="2" fill="#1a2a3a"/>
  <rect x="15" y="10" width="6" height="2" fill="#1a2a3a"/>
  <circle cx="20" cy="7" r="1" fill="#4f4"/>
  <circle cx="20" cy="11" r="1" fill="#4f4"/>
</svg>
